inDegrees=yes
name=ik_data_2024_11_07_18_52
DataType=double
version=3
OpenSimVersion=4.5.1
endheader
time	pelvis_tilt	pelvis_list	pelvis_rotation	pelvis_tx	pelvis_ty	pelvis_tz	hip_flexion_r	hip_adduction_r	hip_rotation_r	knee_angle_r	knee_angle_r_beta	ankle_angle_r	subtalar_angle_r	mtp_angle_r	hip_flexion_l	hip_adduction_l	hip_rotation_l	knee_angle_l	knee_angle_l_beta	ankle_angle_l	subtalar_angle_l	mtp_angle_l	lumbar_extension	lumbar_bending	lumbar_rotation	arm_flex_r	arm_add_r	arm_rot_r	elbow_flex_r	pro_sup_r	wrist_flex_r	wrist_dev_r	arm_flex_l	arm_add_l	arm_rot_l	elbow_flex_l	pro_sup_l	wrist_flex_l	wrist_dev_l
0	-0.009215931628324171	-0.0001008354620200092	-14.77680426446211	0	0.9399999999999999	0	0.2914608220941704	-0.007983344142524183	-0.07611239096359942	0.5435027914957226	0.009485913205380595	-5.290157339482018	0	0	0.2921710860692366	-0.01418654986811524	-0.09644980506073662	0.5497454064861784	0.009594867390898404	-5.290157339482018	0	0	0	0	0	0	-9.302329968102768	0	74.5587307961009	45.2875206781036	0	0	0	-9.302329968102768	0	74.5587307961009	45.2875206781036	0	0
0.10858	-0.03380043336811569	0.0491456184156305	-14.59824788836348	0	0.9399999999999999	0	0.2880218296990772	-0.005717986977804069	-0.2583608066333476	0.5140141440393938	0.008971239215307807	-5.289732572424776	0	0	0.3165515301580973	0.02957894325118268	0.09448933425375196	0.5183506223161333	0.009046925039178122	-5.289732572424776	0	0	0	0	0	0	-9.303286989905651	0	74.55887458448291	45.28726406273708	0	0	0	-9.303286989905651	0	74.55887458448291	45.28726406273708	0	0
0.11597	0.006759605418543087	0.02419858254757994	-14.70802243501014	0	0.9399999999999999	0	0.271429287917513	0.06479777402211215	-0.1489679613028923	0.5084742482428478	0.008874549793440685	-5.289331512728714	0	0	0.2605421053417632	0.004471458567689436	-0.002316097919549437	0.5131172935763607	0.008955586221829844	-5.289331512728714	0	0	0	0	0	0	-9.30418234330053	0	74.55900955524517	45.28702214461489	0	0	0	-9.30418234330053	0	74.55900955524517	45.28702214461489	0	0
0.14345	-0.01489758385492857	0.03507441384674064	-14.65515930539766	0	0.9399999999999999	0	0.2977934594906502	0.0263936790836495	-0.192575725437988	0.5006912077225204	0.008738710110544839	-5.289125483754756	0	0	0.2865313049213265	0.02833211284147332	0.04036104233090902	0.5084587900041718	0.008874279996279232	-5.289125483754756	0	0	0	0	0	0	-9.304652794608565	0	74.55908017129408	45.28689691466042	0	0	0	-9.304652794608565	0	74.55908017129408	45.28689691466042	0	0
0.18218	-0.0239736891369422	0.03931829399834281	-14.64903158134808	0	0.9399999999999999	0	0.3220636910143531	0.05491609466775228	-0.203268808069841	0.4622954142550963	0.008068577095622559	-5.288911837709453	0	0	0.297281441021608	0.02464959983392643	0.04925064950617927	0.5073504375762533	0.00885493559713958	-5.288911837709453	0	0	0	0	0	0	-9.305134061996817	0	74.55915265432027	45.28676754785121	0	0	0	-9.305134061996817	0	74.55915265432027	45.28676754785121	0	0
0.22957	-0.08653384101847102	0.03030055954316177	-14.68433942098264	0	0.9399999999999999	0	0.3239593634193342	0.0488609687595602	-0.1665801674127643	0.4527637586116434	0.007902218321478008	-5.288645088288808	0	0	0.35661120883374	-0.00114252541594234	0.01311452274555134	0.5103324531804664	0.008906981587778947	-5.288645088288808	0	0	0	0	0	0	-9.305803735666982	0	74.55925054009872	45.28660169088273	0	0	0	-9.305803735666982	0	74.55925054009872	45.28660169088273	0	0
0.27805	-0.1373203650055521	0.05506834804056823	-14.59534888362381	0	0.9399999999999999	0	0.3271997984587249	0.0120464825158129	-0.2467430647775811	0.4418795013101466	0.007712252194932654	-5.288358925038315	0	0	0.4161738705812866	0.0074838153746111	0.09583110439138587	0.5140707334469768	0.008972226886791885	-5.288358925038315	0	0	0	0	0	0	-9.306557745445158	0	74.5593595463456	45.28642120174268	0	0	0	-9.306557745445158	0	74.5593595463456	45.28642120174268	0	0
0.31513	-0.1653698356258192	0.03818652531534508	-14.66979539260278	0	0.9399999999999999	0	0.2823610150040141	0.01084686571536373	-0.1740507710425959	0.4096524740780109	0.007149784461602012	-5.288037064785655	0	0	0.4370815939592596	-0.016911885918883	0.0277015616417721	0.5097657985725895	0.008897091599149897	-5.288037064785655	0	0	0	0	0	0	-9.307351806492148	0	74.55947654293071	45.28622125070227	0	0	0	-9.307351806492148	0	74.55947654293071	45.28622125070227	0	0
0.36284	-0.1703859108236614	0.04964922731807275	-14.61569214911465	0	0.9399999999999999	0	0.2936140069717247	0.002085189091442292	-0.2102131926891136	0.3946602870770835	0.006888121436361135	-5.287860225624353	0	0	0.4495513990372167	-0.005522256440631426	0.07586316245447078	0.510211053762414	0.008904862768223927	-5.287860225624353	0	0	0	0	0	0	-9.307758135021416	0	74.55953744692532	45.2861135637701	0	0	0	-9.307758135021416	0	74.55953744692532	45.2861135637701	0	0
0.40914	-0.2072770163722641	0.03582138414857707	-14.67054365623965	0	0.9399999999999999	0	0.3386754126813573	0.0167805677939069	-0.1636595028070885	0.3874074976686567	0.006761536381230316	-5.287636059097118	0	0	0.4719642404138186	-0.02780354563081033	0.03390829747786545	0.5061183374788625	0.008833431393725966	-5.287636059097118	0	0	0	0	0	0	-9.308270973535336	0	74.55961438218309	45.28597724883188	0	0	0	-9.308270973535336	0	74.55961438218309	45.28597724883188	0	0
0.4574	-0.2172073413061109	0.0624019536849065	-14.56603484299218	0	0.9399999999999999	0	0.3824308621772801	0.01707553037428864	-0.2548947667045656	0.3798525337400767	0.006629677385807188	-5.287438881987491	0	0	0.4936387288827375	-0.003399770773879077	0.1230877366407167	0.5076072729836474	0.008859418220634307	-5.287438881987491	0	0	0	0	0	0	-9.308724035511284	0	74.55968230151051	45.28585714542848	0	0	0	-9.308724035511284	0	74.55968230151051	45.28585714542848	0	0
0.49928	-0.239800518170657	0.06865636493944817	-14.54297563937739	0	0.9399999999999999	0	0.4189885187817026	0.02015254254467454	-0.2849946916530741	0.3734853456415225	0.006518548989393622	-5.287261612599131	0	0	0.5160946866741629	-0.001878788803015249	0.1519266313583452	0.5074343199147675	0.008856399620130925	-5.287261612599131	0	0	0	0	0	0	-9.309131158264695	0	74.55974332698234	45.28574921674361	0	0	0	-9.309131158264695	0	74.55974332698234	45.28574921674361	0	0
0.54927	-0.2634682396387187	0.0554937611561202	-14.60044777465484	0	0.9399999999999999	0	0.4497767800834138	0.03025556705766802	-0.228761840746362	0.3630259235559305	0.006335997636144228	-5.287035839080687	0	0	0.5324621996016217	-0.0253569663454147	0.1047082155765229	0.5058614338616499	0.008828947579745325	-5.287035839080687	0	0	0	0	0	0	-9.30964705645456	0	74.55982075934442	45.28561193325539	0	0	0	-9.30964705645456	0	74.55982075934442	45.28561193325539	0	0
0.58613	-0.2817343526996973	0.04668483074335642	-14.61277459412145	0	0.9399999999999999	0	0.4472471355641329	0.01530390254277787	-0.214856738863436	0.3864940098603422	0.006745593011298401	-5.286867621874207	0	0	0.5566071684626611	-0.0334595591219042	0.08954147446931267	0.5092481735319547	0.008888057337900051	-5.286867621874207	0	0	0	0	0	0	-9.310035316550618	0	74.55987885163134	45.28550943562909	0	0	0	-9.310035316550618	0	74.55987885163134	45.28550943562909	0	0
0.63137	-0.3397089652204554	0.005669084419541998	-14.73266014085416	0	0.9399999999999999	0	0.4730472902903928	0.05744451501716814	-0.08816124345374392	0.3706075366320318	0.006468321746934452	-5.284430631106829	0	0	0.5984603229639867	-0.09651380791910358	-0.04260001505602499	0.5238079920963959	0.009142174110342544	-5.284430631106829	0	0	0	0	0	0	-9.315477627621602	0	74.56070249529645	45.28403188045947	0	0	0	-9.315477627621602	0	74.56070249529645	45.28403188045947	0	0
0.68268	-0.4327053500346623	0.02946501255208047	-14.72057745008373	0	0.9399999999999999	0	0.6304546246560917	0.05241226657564948	-0.1004271938636271	0.430249216341499	0.00750926542928455	-5.282670679177962	0	0	0.7265136669798522	-0.09234095861893711	-0.04735678920148059	0.5834637282430397	0.01018336312380247	-5.282670679177962	0	0	0	0	0	0	-9.319553900596794	0	74.56131399900575	45.2829536707544	0	0	0	-9.319553900596794	0	74.56131399900575	45.2829536707544	0	0
0.7430099999999999	-0.4323664131525824	0.006528989772885258	-14.78833502971829	0	0.9399999999999999	0	0.5645136512981604	0.05930494442403581	-0.03436890961779738	0.3590847641445605	0.00626721142806986	-5.282347759346595	0	0	0.690452448711968	-0.1124909929611826	-0.0918231661110832	0.5177892140231724	0.009037126616017951	-5.282347759346595	0	0	0	0	0	0	-9.320313657632793	0	74.56142749667984	45.28275511933858	0	0	0	-9.320313657632793	0	74.56142749667984	45.28275511933858	0	0
0.76712	-0.4898010932819574	-0.005704167215152397	-14.7977901377313	0	0.9399999999999999	0	0.5609586110238675	0.07507321732709306	-0.02126231028870617	0.3463409020896147	0.006044789075791084	-5.281150830246967	0	0	0.7419425624099195	-0.1404646221403227	-0.1025553847885593	0.5186579573598668	0.009052289047598031	-5.281150830246967	0	0	0	0	0	0	-9.322562030255023	0	74.5617870648738	45.28205502019802	0	0	0	-9.322562030255023	0	74.5617870648738	45.28205502019802	0	0
0.81387	-0.4932926267283243	-0.001370627781557442	-14.79981525936676	0	0.9399999999999999	0	0.6202123667633946	0.09144253423983842	-0.01509799505364836	0.3276799087716085	0.005719093300699216	-5.279478226908064	0	0	0.742246471092003	-0.1378780064401764	-0.1048465069562518	0.5095972226842305	0.008894149394858558	-5.279478226908064	0	0	0	0	0	0	-9.326335435076221	0	74.56235735230774	45.28103632474991	0	0	0	-9.326335435076221	0	74.56235735230774	45.28103632474991	0	0
0.8633	-0.5607709632124679	0.04184498037732798	-14.63929621742049	0	0.9399999999999999	0	0.7366855161106712	0.04947920824435395	-0.1783243030720368	0.3314138033835438	0.005784262055599962	-5.278721587176935	0	0	0.8156982291242908	-0.1054291709859688	0.04982890970030103	0.5147132063102822	0.008983440153611277	-5.278721587176935	0	0	0	0	0	0	-9.328055408208346	0	74.56261680532451	45.28057456475711	0	0	0	-9.328055408208346	0	74.56261680532451	45.28057456475711	0	0
0.90957	-0.5835137429509523	0.02676959347416956	-14.71458648138836	0	0.9399999999999999	0	0.7212941618957196	0.05615474626513716	-0.1026906791487034	0.3460524205634715	0.006039754123328709	-5.278486727579312	0	0	0.8399150988411901	-0.1377304389706233	-0.01126610586105605	0.5067234518203084	0.008843992631335236	-5.278486727579312	0	0	0	0	0	0	-9.328628176459274	0	74.56270168291674	45.28042853530886	0	0	0	-9.328628176459274	0	74.56270168291674	45.28042853530886	0	0
0.9482	-0.5844556039640204	0.01176762715873783	-14.73446621916397	0	0.9399999999999999	0	0.7178445186874796	0.04252574711407363	-0.07891263475755275	0.3497450921348209	0.006104203400443549	-5.277329788962523	0	0	0.8393530013378229	-0.144271199794145	-0.04204494553836252	0.5328852838429449	0.00930060273848393	-5.277329788962523	0	0	0	0	0	0	-9.331161214062581	0	74.56308758388725	45.27972916349286	0	0	0	-9.331161214062581	0	74.56308758388725	45.27972916349286	0	0
0.99861	-0.6654181821182321	0.05135667824632234	-14.59330256128132	0	0.9399999999999999	0	0.778101077147174	0.02067753998138415	-0.2164837880952015	0.3244041901876492	0.005661921226040359	-5.276566407220063	0	0	0.9319970196649039	-0.1242952421778288	0.1043210469205567	0.5207021693648703	0.009087967277694139	-5.276566407220063	0	0	0	0	0	0	-9.332861721603773	0	74.56334579543912	45.27926503914128	0	0	0	-9.332861721603773	0	74.56334579543912	45.27926503914128	0	0
